Coordinates
version=1
nRows=9
nColumns=36
inDegrees=yes

Units are S.I. units (second, meters, Newtons, ...)
If the header above contains a line with 'inDegrees', this indicates whether rotational values are in degrees (yes) or radians (no).

endheader
time	pelvis_tilt	pelvis_list	pelvis_rotation	pelvis_tx	pelvis_ty	pelvis_tz	hip_flexion_r	hip_adduction_r	hip_rotation_r	knee_angle_r	knee_angle_r_beta	ankle_angle_r	subtalar_angle_r	mtp_angle_r	hip_flexion_l	hip_adduction_l	hip_rotation_l	knee_angle_l	knee_angle_l_beta	ankle_angle_l	subtalar_angle_l	mtp_angle_l	lumbar_extension	lumbar_bending	lumbar_rotation	arm_flex_r	arm_add_r	arm_rot_r	elbow_flex_r	pro_sup_r	arm_flex_l	arm_add_l	arm_rot_l	elbow_flex_l	pro_sup_l
      1.01000000	     -2.58612255	      5.28376282	      1.48650881	     -0.76945781	      1.40878190	     -0.55460412	      3.53685361	     -2.30166921	      1.55123065	     41.94664654	      0.73210709	     -8.25152614	    -15.96442041	     -5.83816377	     26.45277858	      1.68922262	     -3.43412350	     52.80567644	      0.92163292	     -8.24526190	    -17.55737133	     -5.83816377	     -4.27526390	     -1.01595639	    -15.57134208	     81.44097323	    -20.67212652	     35.00523611	     99.24154532	    109.23544018	     35.38841521	    -70.04277650	     -9.60488298	    120.15583095	     90.65065613
      1.02000000	     -2.30825478	      5.22002798	      1.44421342	     -0.75767198	      1.41398458	     -0.55443671	      4.76289048	     -2.42247703	      0.78942157	     44.24572046	      0.77223350	     -7.77290008	    -17.44143959	     -5.85686775	     25.60952360	      1.84514216	     -3.31791937	     50.07511244	      0.87397559	     -8.34512992	    -16.44412911	     -5.85686775	     -4.31164417	     -1.23448212	    -15.29425276	     80.70751889	    -22.58294557	     35.44490910	    101.16774214	    109.65953158	     34.54136468	    -70.63045089	    -10.03480480	    120.56435048	     90.89038465
      1.03000000	     -1.98959348	      4.99339663	      1.34921552	     -0.74592529	      1.41835827	     -0.55427589	      5.87735590	     -2.35522647	      0.01331700	     46.14407784	      0.80536609	     -7.32725368	    -19.54636844	     -6.29805898	     24.70648750	      1.77033621	     -3.24033577	     47.30738746	      0.82566967	     -8.43053655	    -14.93811799	     -6.29805898	     -4.63173830	     -0.93150039	    -16.60440264	     80.63598717	    -22.37021015	     36.31722011	    101.73533570	    112.14771133	     23.98079049	    -72.17111523	    -20.77562496	    121.68806229	     95.36933719
      1.04000000	     -1.54017692	      4.67145047	      1.31997530	     -0.73431782	      1.42197033	     -0.55426436	      6.76940494	     -2.21715168	     -0.86904353	     47.59367285	      0.83066629	     -6.55317035	    -21.16675943	     -6.30771893	     23.63763630	      1.63411543	     -3.03013395	     44.46291824	      0.77602432	     -9.01376199	    -13.46391154	     -6.30771893	     -4.88455037	     -0.74507289	    -16.26624776	     79.88877342	    -24.32699253	     36.95975137	    103.35957817	    112.20549469	     23.05074679	    -72.07058198	    -20.87344860	    121.74324347	     95.34513587
      1.05000000	     -1.00608292	      4.27644946	      1.17026935	     -0.72287488	      1.42473235	     -0.55409161	      7.54849247	     -1.95167775	     -1.52251976	     48.56788569	      0.84766952	     -6.56413313	    -22.57322207	     -6.32484628	     22.46483480	      1.28192651	     -3.19373934	     41.61205215	      0.72626732	     -9.65053452	    -11.73045544	     -6.32484628	     -5.37990698	     -0.47434461	    -15.78902187	     79.23703821	    -26.45018604	     37.55622460	    105.15316251	    112.12877475	     21.75052120	    -71.99667638	    -21.48820460	    121.96585290	     95.27578516
      1.06000000	     -0.61257857	      3.70062659	      1.07826448	     -0.71115142	      1.42643694	     -0.55404212	      8.27137590	     -1.45405340	     -2.13164092	     48.79976760	      0.85171662	     -6.93751154	    -23.87098500	     -6.82588548	     21.43014779	      0.80530869	     -3.18372806	     38.79387674	      0.67708088	    -10.42479155	    -10.04377437	     -6.82588548	     -5.99030157	      0.35201899	    -18.27978762	     79.56331398	    -24.89894554	     39.30355615	    104.62435653	    110.26460399	      1.64930142	    -72.46812979	    -41.59545229	    124.24066357	     93.66532585
      1.07000000	     -0.29564738	      3.14254861	      0.96416808	     -0.69960096	      1.42713448	     -0.55411126	      8.98236465	     -1.01313550	     -2.69287878	     48.51765383	      0.84679280	     -6.63478143	    -24.11855997	     -6.83088808	     20.46070779	      0.39113182	     -3.13716216	     35.92760035	      0.62705492	    -11.50222913	     -8.68082318	     -6.83088808	     -6.12689359	      0.86310385	    -17.86317534	     78.72228605	    -26.82237909	     39.83433521	    105.60349363	    110.39504893	      0.81628782	    -71.65881980	    -41.56451629	    124.07080064	     93.66940815
      1.08000000	      0.27960863	      2.76926507	      0.70484867	     -0.68805351	      1.42716559	     -0.55406356	      9.30244733	     -0.78946914	     -3.14766110	     47.71773347	      0.83283156	     -6.11578722	    -23.79497390	     -7.05439596	     19.13582147	      0.05153542	     -3.59608823	     32.93790134	      0.57487483	    -12.85376665	     -7.15499344	     -7.05439596	     -6.95444531	      1.28720554	    -18.71857919	     78.71489570	    -27.43081238	     40.97757079	    105.93835011	    110.31913548	     -8.97710841	    -70.81004741	    -51.09858515	    125.03135616	     94.33090212
      1.09000000	      0.64216142	      2.35760605	      0.49526942	     -0.67641586	      1.42604449	     -0.55397942	      9.65935596	     -0.48433858	     -3.59780308	     46.24580585	      0.80714158	     -5.86276698	    -23.18988870	     -7.06304671	     18.08879024	     -0.34575261	     -4.14757098	     30.07628618	      0.52493022	    -14.09916265	     -5.40524551	     -7.06304671	     -7.31086722	      1.66524605	    -18.24147259	     78.18564538	    -29.67163774	     41.84889299	    107.08215470	    110.32722696	     -9.91449724	    -69.86074680	    -51.21660964	    125.06466143	     94.27321493
